# xmcd
#
# Track frame offsets:
# 150
# 17635
# 35945
# 54641
# 72716
# 86726
# 102239
# 120163
# 134401
# 153561
#
# Disc length: 2555 seconds
#
# Revision: 0
# Processed by: cddbd v1.5.1PL0 Copyright (c) Steve Scherf et al.
# Submitted via: Axialis_AX_CDPlayer 2.6
#
DISCID=8c09f90a
DTITLE=Bad Poetry - Things That You're Afraid Of
DYEAR=1900
DGENRE=
TTITLE0=Things That You're Afraid Of
TTITLE1=Mr. Daniels
TTITLE2=Memoirs of the Inflicted
TTITLE3=Theory
TTITLE4=Wishful Thinking (Instrumental)
TTITLE5=Pickup
TTITLE6=Throwback
TTITLE7=Girl in the Green Shirt
TTITLE8=Teen Queen
TTITLE9=Things That You're Afraid Of (Acoustic)
EXTD=
EXTT0=
EXTT1=
EXTT2=
EXTT3=
EXTT4=
EXTT5=
EXTT6=
EXTT7=
EXTT8=
EXTT9=
PLAYORDER=
